<svg width="40" height="40" viewBox="0 0 40 40" fill="none" xmlns="http://www.w3.org/2000/svg">
<g clip-path="url(#clip0_2050_144544)">
<path d="M21.05 13.4078C20.47 12.8641 19.53 12.8641 18.95 13.4078L12.436 19.5156C11.856 20.0594 11.856 20.9397 12.436 21.4825L18.952 27.5913C19.532 28.135 20.471 28.135 21.05 27.5913L27.566 21.4825C28.146 20.9388 28.146 20.0584 27.566 19.5156L21.05 13.4078ZM20 16.75C20.535 16.75 20.954 17.1831 20.9 17.6828L20.55 20.9706C20.5382 21.0998 20.4752 21.2201 20.3733 21.3078C20.2715 21.3955 20.1383 21.4441 20 21.4441C19.8617 21.4441 19.7285 21.3955 19.6266 21.3078C19.5248 21.2201 19.4617 21.0998 19.45 20.9706L19.1 17.6828C19.0874 17.5649 19.1013 17.4458 19.1408 17.3333C19.1803 17.2207 19.2445 17.1172 19.3293 17.0293C19.4141 16.9414 19.5176 16.8712 19.6331 16.8231C19.7486 16.775 19.8736 16.7501 20 16.75ZM20.002 22.375C20.2672 22.375 20.5215 22.4738 20.7091 22.6496C20.8966 22.8254 21.002 23.0639 21.002 23.3125C21.002 23.5611 20.8966 23.7996 20.7091 23.9754C20.5215 24.1512 20.2672 24.25 20.002 24.25C19.7368 24.25 19.4824 24.1512 19.2949 23.9754C19.1073 23.7996 19.002 23.5611 19.002 23.3125C19.002 23.0639 19.1073 22.8254 19.2949 22.6496C19.4824 22.4738 19.7368 22.375 20.002 22.375Z" fill="#F16A1B"/>
</g>
<rect x="0.5" y="0.5" width="39" height="39" rx="19.5" stroke="#EEB899"/>
<defs>
<clipPath id="clip0_2050_144544">
<rect width="16" height="15" fill="white" transform="translate(12 13)"/>
</clipPath>
</defs>
</svg>
