<svg width="40" height="40" viewBox="0 0 40 40" fill="none" xmlns="http://www.w3.org/2000/svg">
<g clip-path="url(#clip0_2050_144552)">
<path d="M17.5 21.9166C17.576 22.8109 18.33 23.5075 19.682 23.59V24.25H20.282V23.5853C21.682 23.4934 22.5 22.7922 22.5 21.7741C22.5 20.8488 21.874 20.3716 20.755 20.1241L20.282 20.0191V18.2219C20.882 18.2856 21.264 18.5931 21.356 19.0188H22.408C22.332 18.1572 21.544 17.4831 20.282 17.41V16.75H19.682V17.4241C18.487 17.5337 17.672 18.2078 17.672 19.1613C17.672 20.005 18.278 20.5413 19.285 20.7616L19.682 20.8534V22.7603C19.067 22.6731 18.66 22.3572 18.568 21.9166H17.5ZM19.677 19.8859C19.087 19.7575 18.767 19.4959 18.767 19.1022C18.767 18.6616 19.112 18.3316 19.682 18.235V19.885H19.677V19.8859ZM20.369 21.0044C21.086 21.16 21.417 21.4122 21.417 21.8575C21.417 22.3656 21.005 22.7144 20.282 22.7781V20.9856L20.369 21.0044Z" fill="#F16A1B"/>
<path d="M20 27.0625C18.1435 27.0625 16.363 26.3711 15.0503 25.1404C13.7375 23.9097 13 22.2405 13 20.5C13 18.7595 13.7375 17.0903 15.0503 15.8596C16.363 14.6289 18.1435 13.9375 20 13.9375C21.8565 13.9375 23.637 14.6289 24.9497 15.8596C26.2625 17.0903 27 18.7595 27 20.5C27 22.2405 26.2625 23.9097 24.9497 25.1404C23.637 26.3711 21.8565 27.0625 20 27.0625ZM20 28C22.1217 28 24.1566 27.2098 25.6569 25.8033C27.1571 24.3968 28 22.4891 28 20.5C28 18.5109 27.1571 16.6032 25.6569 15.1967C24.1566 13.7902 22.1217 13 20 13C17.8783 13 15.8434 13.7902 14.3431 15.1967C12.8429 16.6032 12 18.5109 12 20.5C12 22.4891 12.8429 24.3968 14.3431 25.8033C15.8434 27.2098 17.8783 28 20 28Z" fill="#F16A1B"/>
<path d="M20 25.6562C18.5413 25.6562 17.1424 25.113 16.1109 24.146C15.0795 23.179 14.5 21.8675 14.5 20.5C14.5 19.1325 15.0795 17.821 16.1109 16.854C17.1424 15.887 18.5413 15.3438 20 15.3438C21.4587 15.3438 22.8576 15.887 23.8891 16.854C24.9205 17.821 25.5 19.1325 25.5 20.5C25.5 21.8675 24.9205 23.179 23.8891 24.146C22.8576 25.113 21.4587 25.6562 20 25.6562ZM20 26.125C20.7879 26.125 21.5681 25.9795 22.2961 25.6968C23.0241 25.4141 23.6855 24.9998 24.2426 24.4775C24.7998 23.9551 25.2417 23.3351 25.5433 22.6526C25.8448 21.9701 26 21.2387 26 20.5C26 19.7613 25.8448 19.0299 25.5433 18.3474C25.2417 17.6649 24.7998 17.0449 24.2426 16.5225C23.6855 16.0002 23.0241 15.5859 22.2961 15.3032C21.5681 15.0205 20.7879 14.875 20 14.875C18.4087 14.875 16.8826 15.4676 15.7574 16.5225C14.6321 17.5774 14 19.0082 14 20.5C14 21.9918 14.6321 23.4226 15.7574 24.4775C16.8826 25.5324 18.4087 26.125 20 26.125Z" fill="#F16A1B"/>
</g>
<rect x="0.5" y="0.5" width="39" height="39" rx="19.5" stroke="#EEB899"/>
<defs>
<clipPath id="clip0_2050_144552">
<rect width="16" height="15" fill="white" transform="translate(12 13)"/>
</clipPath>
</defs>
</svg>
