<svg width="40" height="40" viewBox="0 0 40 40" fill="none" xmlns="http://www.w3.org/2000/svg">
<path d="M12 14.5C12 14.3674 12.0527 14.2402 12.1464 14.1464C12.2402 14.0527 12.3674 14 12.5 14H14C14.1115 14 14.2199 14.0374 14.3077 14.106C14.3956 14.1747 14.458 14.2708 14.485 14.379L14.89 16H26.5C26.5759 16 26.6509 16.0173 26.7191 16.0507C26.7874 16.084 26.8472 16.1324 26.8939 16.1922C26.9407 16.2521 26.9732 16.3218 26.9889 16.3961C27.0047 16.4704 27.0034 16.5473 26.985 16.621L25.485 22.621C25.458 22.7292 25.3956 22.8253 25.3077 22.894C25.2199 22.9626 25.1115 23 25 23H16C15.8885 23 15.7801 22.9626 15.6923 22.894C15.6044 22.8253 15.542 22.7292 15.515 22.621L13.61 15H12.5C12.3674 15 12.2402 14.9473 12.1464 14.8536C12.0527 14.7598 12 14.6326 12 14.5ZM15.14 17L16.39 22H24.61L25.86 17H15.14ZM17 25C16.7348 25 16.4804 25.1054 16.2929 25.2929C16.1054 25.4804 16 25.7348 16 26C16 26.2652 16.1054 26.5196 16.2929 26.7071C16.4804 26.8946 16.7348 27 17 27C17.2652 27 17.5196 26.8946 17.7071 26.7071C17.8946 26.5196 18 26.2652 18 26C18 25.7348 17.8946 25.4804 17.7071 25.2929C17.5196 25.1054 17.2652 25 17 25ZM15 26C15 25.4696 15.2107 24.9609 15.5858 24.5858C15.9609 24.2107 16.4696 24 17 24C17.5304 24 18.0391 24.2107 18.4142 24.5858C18.7893 24.9609 19 25.4696 19 26C19 26.5304 18.7893 27.0391 18.4142 27.4142C18.0391 27.7893 17.5304 28 17 28C16.4696 28 15.9609 27.7893 15.5858 27.4142C15.2107 27.0391 15 26.5304 15 26ZM24 25C23.7348 25 23.4804 25.1054 23.2929 25.2929C23.1054 25.4804 23 25.7348 23 26C23 26.2652 23.1054 26.5196 23.2929 26.7071C23.4804 26.8946 23.7348 27 24 27C24.2652 27 24.5196 26.8946 24.7071 26.7071C24.8946 26.5196 25 26.2652 25 26C25 25.7348 24.8946 25.4804 24.7071 25.2929C24.5196 25.1054 24.2652 25 24 25ZM22 26C22 25.4696 22.2107 24.9609 22.5858 24.5858C22.9609 24.2107 23.4696 24 24 24C24.5304 24 25.0391 24.2107 25.4142 24.5858C25.7893 24.9609 26 25.4696 26 26C26 26.5304 25.7893 27.0391 25.4142 27.4142C25.0391 27.7893 24.5304 28 24 28C23.4696 28 22.9609 27.7893 22.5858 27.4142C22.2107 27.0391 22 26.5304 22 26Z" fill="#F16A1B"/>
<rect x="0.5" y="0.5" width="39" height="39" rx="19.5" stroke="#EEB899"/>
</svg>
