<svg width="19" height="19" viewBox="0 0 19 19" fill="none" xmlns="http://www.w3.org/2000/svg">
<g clip-path="url(#clip0_2290_143069)">
<path d="M16.625 0H2.375C1.74511 0 1.14102 0.250223 0.695621 0.695621C0.250223 1.14102 0 1.74511 0 2.375L0 16.625C0 17.2549 0.250223 17.859 0.695621 18.3044C1.14102 18.7498 1.74511 19 2.375 19H16.625C17.2549 19 17.859 18.7498 18.3044 18.3044C18.7498 17.859 19 17.2549 19 16.625V2.375C19 1.74511 18.7498 1.14102 18.3044 0.695621C17.859 0.250223 17.2549 0 16.625 0V0ZM1.1875 4.58019C1.1875 4.0185 1.7195 3.5625 2.375 3.5625H16.625C17.2805 3.5625 17.8125 4.0185 17.8125 4.58019V16.7948C17.8125 17.3565 17.2805 17.8125 16.625 17.8125H2.375C1.7195 17.8125 1.1875 17.3565 1.1875 16.7948V4.58019Z" fill="white"/>
<path d="M7.71875 8.3125C8.03369 8.3125 8.33574 8.18739 8.55844 7.96469C8.78114 7.74199 8.90625 7.43994 8.90625 7.125C8.90625 6.81006 8.78114 6.50801 8.55844 6.28531C8.33574 6.06261 8.03369 5.9375 7.71875 5.9375C7.40381 5.9375 7.10176 6.06261 6.87906 6.28531C6.65636 6.50801 6.53125 6.81006 6.53125 7.125C6.53125 7.43994 6.65636 7.74199 6.87906 7.96469C7.10176 8.18739 7.40381 8.3125 7.71875 8.3125ZM11.2812 8.3125C11.5962 8.3125 11.8982 8.18739 12.1209 7.96469C12.3436 7.74199 12.4688 7.43994 12.4688 7.125C12.4688 6.81006 12.3436 6.50801 12.1209 6.28531C11.8982 6.06261 11.5962 5.9375 11.2812 5.9375C10.9663 5.9375 10.6643 6.06261 10.4416 6.28531C10.2189 6.50801 10.0938 6.81006 10.0938 7.125C10.0938 7.43994 10.2189 7.74199 10.4416 7.96469C10.6643 8.18739 10.9663 8.3125 11.2812 8.3125ZM14.8438 8.3125C15.1587 8.3125 15.4607 8.18739 15.6834 7.96469C15.9061 7.74199 16.0312 7.43994 16.0312 7.125C16.0312 6.81006 15.9061 6.50801 15.6834 6.28531C15.4607 6.06261 15.1587 5.9375 14.8438 5.9375C14.5288 5.9375 14.2268 6.06261 14.0041 6.28531C13.7814 6.50801 13.6562 6.81006 13.6562 7.125C13.6562 7.43994 13.7814 7.74199 14.0041 7.96469C14.2268 8.18739 14.5288 8.3125 14.8438 8.3125ZM4.15625 11.875C4.47119 11.875 4.77324 11.7499 4.99594 11.5272C5.21864 11.3045 5.34375 11.0024 5.34375 10.6875C5.34375 10.3726 5.21864 10.0705 4.99594 9.84781C4.77324 9.62511 4.47119 9.5 4.15625 9.5C3.84131 9.5 3.53926 9.62511 3.31656 9.84781C3.09386 10.0705 2.96875 10.3726 2.96875 10.6875C2.96875 11.0024 3.09386 11.3045 3.31656 11.5272C3.53926 11.7499 3.84131 11.875 4.15625 11.875ZM7.71875 11.875C8.03369 11.875 8.33574 11.7499 8.55844 11.5272C8.78114 11.3045 8.90625 11.0024 8.90625 10.6875C8.90625 10.3726 8.78114 10.0705 8.55844 9.84781C8.33574 9.62511 8.03369 9.5 7.71875 9.5C7.40381 9.5 7.10176 9.62511 6.87906 9.84781C6.65636 10.0705 6.53125 10.3726 6.53125 10.6875C6.53125 11.0024 6.65636 11.3045 6.87906 11.5272C7.10176 11.7499 7.40381 11.875 7.71875 11.875ZM11.2812 11.875C11.5962 11.875 11.8982 11.7499 12.1209 11.5272C12.3436 11.3045 12.4688 11.0024 12.4688 10.6875C12.4688 10.3726 12.3436 10.0705 12.1209 9.84781C11.8982 9.62511 11.5962 9.5 11.2812 9.5C10.9663 9.5 10.6643 9.62511 10.4416 9.84781C10.2189 10.0705 10.0938 10.3726 10.0938 10.6875C10.0938 11.0024 10.2189 11.3045 10.4416 11.5272C10.6643 11.7499 10.9663 11.875 11.2812 11.875ZM14.8438 11.875C15.1587 11.875 15.4607 11.7499 15.6834 11.5272C15.9061 11.3045 16.0312 11.0024 16.0312 10.6875C16.0312 10.3726 15.9061 10.0705 15.6834 9.84781C15.4607 9.62511 15.1587 9.5 14.8438 9.5C14.5288 9.5 14.2268 9.62511 14.0041 9.84781C13.7814 10.0705 13.6562 10.3726 13.6562 10.6875C13.6562 11.0024 13.7814 11.3045 14.0041 11.5272C14.2268 11.7499 14.5288 11.875 14.8438 11.875ZM4.15625 15.4375C4.47119 15.4375 4.77324 15.3124 4.99594 15.0897C5.21864 14.867 5.34375 14.5649 5.34375 14.25C5.34375 13.9351 5.21864 13.633 4.99594 13.4103C4.77324 13.1876 4.47119 13.0625 4.15625 13.0625C3.84131 13.0625 3.53926 13.1876 3.31656 13.4103C3.09386 13.633 2.96875 13.9351 2.96875 14.25C2.96875 14.5649 3.09386 14.867 3.31656 15.0897C3.53926 15.3124 3.84131 15.4375 4.15625 15.4375ZM7.71875 15.4375C8.03369 15.4375 8.33574 15.3124 8.55844 15.0897C8.78114 14.867 8.90625 14.5649 8.90625 14.25C8.90625 13.9351 8.78114 13.633 8.55844 13.4103C8.33574 13.1876 8.03369 13.0625 7.71875 13.0625C7.40381 13.0625 7.10176 13.1876 6.87906 13.4103C6.65636 13.633 6.53125 13.9351 6.53125 14.25C6.53125 14.5649 6.65636 14.867 6.87906 15.0897C7.10176 15.3124 7.40381 15.4375 7.71875 15.4375ZM11.2812 15.4375C11.5962 15.4375 11.8982 15.3124 12.1209 15.0897C12.3436 14.867 12.4688 14.5649 12.4688 14.25C12.4688 13.9351 12.3436 13.633 12.1209 13.4103C11.8982 13.1876 11.5962 13.0625 11.2812 13.0625C10.9663 13.0625 10.6643 13.1876 10.4416 13.4103C10.2189 13.633 10.0938 13.9351 10.0938 14.25C10.0938 14.5649 10.2189 14.867 10.4416 15.0897C10.6643 15.3124 10.9663 15.4375 11.2812 15.4375Z" fill="white"/>
</g>
<defs>
<clipPath id="clip0_2290_143069">
<rect width="19" height="19" fill="white"/>
</clipPath>
</defs>
</svg>
