<svg width="49" height="49" viewBox="0 0 49 49" fill="none" xmlns="http://www.w3.org/2000/svg">
<path d="M0 7.65625C0 7.25014 0.161328 6.86066 0.448493 6.57349C0.735658 6.28633 1.12514 6.125 1.53125 6.125H6.125C6.46656 6.12509 6.79829 6.23939 7.06743 6.4497C7.33656 6.66002 7.52765 6.95428 7.61031 7.28569L8.85063 12.25H44.4062C44.6388 12.2501 44.8684 12.3031 45.0774 12.4051C45.2864 12.5071 45.4695 12.6554 45.6126 12.8387C45.7558 13.022 45.8553 13.2356 45.9037 13.4631C45.952 13.6906 45.9478 13.9261 45.8916 14.1518L41.2978 32.5268C41.2152 32.8582 41.0241 33.1525 40.7549 33.3628C40.4858 33.5731 40.1541 33.6874 39.8125 33.6875H12.25C11.9084 33.6874 11.5767 33.5731 11.3076 33.3628C11.0384 33.1525 10.8473 32.8582 10.7647 32.5268L4.93062 9.1875H1.53125C1.12514 9.1875 0.735658 9.02617 0.448493 8.73901C0.161328 8.45184 0 8.06236 0 7.65625ZM9.61625 15.3125L13.4444 30.625H38.6181L42.4462 15.3125H9.61625ZM15.3125 39.8125C14.5003 39.8125 13.7213 40.1352 13.147 40.7095C12.5727 41.2838 12.25 42.0628 12.25 42.875C12.25 43.6872 12.5727 44.4662 13.147 45.0405C13.7213 45.6148 14.5003 45.9375 15.3125 45.9375C16.1247 45.9375 16.9037 45.6148 17.478 45.0405C18.0523 44.4662 18.375 43.6872 18.375 42.875C18.375 42.0628 18.0523 41.2838 17.478 40.7095C16.9037 40.1352 16.1247 39.8125 15.3125 39.8125ZM9.1875 42.875C9.1875 41.2505 9.83281 39.6926 10.9815 38.544C12.1301 37.3953 13.688 36.75 15.3125 36.75C16.937 36.75 18.4949 37.3953 19.6435 38.544C20.7922 39.6926 21.4375 41.2505 21.4375 42.875C21.4375 44.4995 20.7922 46.0574 19.6435 47.206C18.4949 48.3547 16.937 49 15.3125 49C13.688 49 12.1301 48.3547 10.9815 47.206C9.83281 46.0574 9.1875 44.4995 9.1875 42.875ZM36.75 39.8125C35.9378 39.8125 35.1588 40.1352 34.5845 40.7095C34.0102 41.2838 33.6875 42.0628 33.6875 42.875C33.6875 43.6872 34.0102 44.4662 34.5845 45.0405C35.1588 45.6148 35.9378 45.9375 36.75 45.9375C37.5622 45.9375 38.3412 45.6148 38.9155 45.0405C39.4898 44.4662 39.8125 43.6872 39.8125 42.875C39.8125 42.0628 39.4898 41.2838 38.9155 40.7095C38.3412 40.1352 37.5622 39.8125 36.75 39.8125ZM30.625 42.875C30.625 41.2505 31.2703 39.6926 32.419 38.544C33.5676 37.3953 35.1255 36.75 36.75 36.75C38.3745 36.75 39.9324 37.3953 41.081 38.544C42.2297 39.6926 42.875 41.2505 42.875 42.875C42.875 44.4995 42.2297 46.0574 41.081 47.206C39.9324 48.3547 38.3745 49 36.75 49C35.1255 49 33.5676 48.3547 32.419 47.206C31.2703 46.0574 30.625 44.4995 30.625 42.875Z" fill="white"/>
</svg>
