<svg width="42" height="42" viewBox="0 0 42 42" fill="none" xmlns="http://www.w3.org/2000/svg">
<g clip-path="url(#clip0_2215_145999)">
<path d="M21 39.375C16.1266 39.375 11.4529 37.4391 8.00691 33.9931C4.56093 30.5471 2.625 25.8734 2.625 21C2.625 16.1266 4.56093 11.4529 8.00691 8.00691C11.4529 4.56093 16.1266 2.625 21 2.625C25.8734 2.625 30.5471 4.56093 33.9931 8.00691C37.4391 11.4529 39.375 16.1266 39.375 21C39.375 25.8734 37.4391 30.5471 33.9931 33.9931C30.5471 37.4391 25.8734 39.375 21 39.375ZM21 42C26.5695 42 31.911 39.7875 35.8492 35.8492C39.7875 31.911 42 26.5695 42 21C42 15.4305 39.7875 10.089 35.8492 6.15076C31.911 2.21249 26.5695 0 21 0C15.4305 0 10.089 2.21249 6.15076 6.15076C2.21249 10.089 0 15.4305 0 21C0 26.5695 2.21249 31.911 6.15076 35.8492C10.089 39.7875 15.4305 42 21 42Z" fill="#F16A1B"/>
<path d="M28.7964 13.0471C28.7777 13.0652 28.7602 13.0845 28.7439 13.1049L19.6273 24.7205L14.1332 19.2237C13.7599 18.876 13.2663 18.6867 12.7563 18.6956C12.2462 18.7046 11.7596 18.9113 11.3989 19.272C11.0382 19.6327 10.8316 20.1193 10.8226 20.6294C10.8136 21.1394 11.0029 21.633 11.3507 22.0062L18.2964 28.9546C18.4835 29.1414 18.7063 29.2886 18.9516 29.3874C19.1968 29.4861 19.4594 29.5345 19.7237 29.5296C19.9881 29.5247 20.2487 29.4666 20.4901 29.3588C20.7315 29.251 20.9487 29.0957 21.1288 28.9021L31.6078 15.8034C31.9646 15.4289 32.1597 14.929 32.1509 14.4118C32.1421 13.8946 31.93 13.4016 31.5607 13.0395C31.1913 12.6774 30.6943 12.4751 30.177 12.4766C29.6597 12.478 29.1638 12.6829 28.7964 13.0471Z" fill="#F16A1B"/>
</g>
<defs>
<clipPath id="clip0_2215_145999">
<rect width="42" height="42" fill="white"/>
</clipPath>
</defs>
</svg>
