<svg width="19" height="19" viewBox="0 0 19 19" fill="none" xmlns="http://www.w3.org/2000/svg">
<path d="M11.2812 0C11.4387 0 11.5897 0.0625556 11.7011 0.173905C11.8124 0.285255 11.875 0.436278 11.875 0.59375C11.875 0.751222 11.9376 0.902245 12.0489 1.01359C12.1603 1.12494 12.3113 1.1875 12.4688 1.1875C12.6262 1.1875 12.7772 1.25006 12.8886 1.36141C12.9999 1.47276 13.0625 1.62378 13.0625 1.78125V2.375C13.0625 2.53247 12.9999 2.68349 12.8886 2.79484C12.7772 2.90619 12.6262 2.96875 12.4688 2.96875H6.53125C6.37378 2.96875 6.22276 2.90619 6.11141 2.79484C6.00006 2.68349 5.9375 2.53247 5.9375 2.375V1.78125C5.9375 1.62378 6.00006 1.47276 6.11141 1.36141C6.22276 1.25006 6.37378 1.1875 6.53125 1.1875C6.68872 1.1875 6.83974 1.12494 6.95109 1.01359C7.06244 0.902245 7.125 0.751222 7.125 0.59375C7.125 0.436278 7.18756 0.285255 7.29891 0.173905C7.41026 0.0625556 7.56128 0 7.71875 0L11.2812 0Z" fill="white"/>
<path d="M3.5625 2.96875C3.5625 2.81128 3.62506 2.66026 3.73641 2.54891C3.84776 2.43756 3.99878 2.375 4.15625 2.375H4.75C4.90747 2.375 5.05849 2.31244 5.16984 2.20109C5.28119 2.08974 5.34375 1.93872 5.34375 1.78125C5.34375 1.62378 5.28119 1.47276 5.16984 1.36141C5.05849 1.25006 4.90747 1.1875 4.75 1.1875H4.15625C3.68383 1.1875 3.23077 1.37517 2.89672 1.70922C2.56267 2.04327 2.375 2.49633 2.375 2.96875V17.2188C2.375 17.6912 2.56267 18.1442 2.89672 18.4783C3.23077 18.8123 3.68383 19 4.15625 19H14.8438C15.3162 19 15.7692 18.8123 16.1033 18.4783C16.4373 18.1442 16.625 17.6912 16.625 17.2188V2.96875C16.625 2.49633 16.4373 2.04327 16.1033 1.70922C15.7692 1.37517 15.3162 1.1875 14.8438 1.1875H14.25C14.0925 1.1875 13.9415 1.25006 13.8302 1.36141C13.7188 1.47276 13.6562 1.62378 13.6562 1.78125C13.6562 1.93872 13.7188 2.08974 13.8302 2.20109C13.9415 2.31244 14.0925 2.375 14.25 2.375H14.8438C15.0012 2.375 15.1522 2.43756 15.2636 2.54891C15.3749 2.66026 15.4375 2.81128 15.4375 2.96875V17.2188C15.4375 17.3762 15.3749 17.5272 15.2636 17.6386C15.1522 17.7499 15.0012 17.8125 14.8438 17.8125H4.15625C3.99878 17.8125 3.84776 17.7499 3.73641 17.6386C3.62506 17.5272 3.5625 17.3762 3.5625 17.2188V2.96875Z" fill="white"/>
<path d="M11.8501 6.36004C11.8121 6.23374 11.7333 6.12366 11.6259 6.04715C11.5184 5.97065 11.3886 5.93207 11.2569 5.93752C11.1251 5.94296 10.9989 5.99211 10.8982 6.07722C10.7975 6.16233 10.7279 6.27854 10.7006 6.40754L9.405 12.4567L8.28875 8.73385C8.25455 8.61995 8.18692 8.51893 8.09464 8.44391C8.00236 8.36888 7.88968 8.32329 7.77119 8.31306C7.6527 8.30282 7.53386 8.3284 7.43008 8.38649C7.3263 8.44458 7.24236 8.5325 7.18912 8.63885L5.56938 11.8748H5.34375C5.18628 11.8748 5.03526 11.9373 4.92391 12.0487C4.81256 12.16 4.75 12.3111 4.75 12.4685C4.75 12.626 4.81256 12.777 4.92391 12.8884C5.03526 12.9997 5.18628 13.0623 5.34375 13.0623H5.9375C6.04767 13.0623 6.15568 13.0316 6.24942 12.9737C6.34316 12.9159 6.41895 12.833 6.46831 12.7345L7.57981 10.5104L8.93119 15.0145C8.9691 15.1408 9.04799 15.2509 9.15539 15.3274C9.2628 15.4039 9.39262 15.4425 9.52438 15.4371C9.65614 15.4316 9.78233 15.3825 9.88306 15.2974C9.98379 15.2123 10.0533 15.096 10.0807 14.967L11.3762 8.91792L12.4925 12.6407C12.5295 12.763 12.605 12.87 12.7077 12.9459C12.8104 13.0219 12.9348 13.0627 13.0625 13.0623H13.6562C13.8137 13.0623 13.9647 12.9997 14.0761 12.8884C14.1874 12.777 14.25 12.626 14.25 12.4685C14.25 12.3111 14.1874 12.16 14.0761 12.0487C13.9647 11.9373 13.8137 11.8748 13.6562 11.8748H13.5042L11.8501 6.36004Z" fill="white"/>
</svg>
