<svg width="19" height="25" viewBox="0 0 19 25" fill="none" xmlns="http://www.w3.org/2000/svg">
<path d="M0.59375 0C0.751222 0 0.902245 0.0794688 1.01359 0.220924C1.12494 0.36238 1.1875 0.554234 1.1875 0.754282V23.3828C1.1875 23.5828 1.12494 23.7747 1.01359 23.9161C0.902245 24.0576 0.751222 24.137 0.59375 24.137C0.436278 24.137 0.285255 24.0576 0.173905 23.9161C0.0625556 23.7747 0 23.5828 0 23.3828V0.754282C0 0.554234 0.0625556 0.36238 0.173905 0.220924C0.285255 0.0794688 0.436278 0 0.59375 0V0ZM2.375 2.26285C2.375 2.0628 2.43756 1.87094 2.54891 1.72949C2.66026 1.58803 2.81128 1.50856 2.96875 1.50856H7.71875C7.87622 1.50856 8.02724 1.58803 8.13859 1.72949C8.24994 1.87094 8.3125 2.0628 8.3125 2.26285V3.77141C8.3125 3.97146 8.24994 4.16331 8.13859 4.30477C8.02724 4.44623 7.87622 4.52569 7.71875 4.52569H2.96875C2.81128 4.52569 2.66026 4.44623 2.54891 4.30477C2.43756 4.16331 2.375 3.97146 2.375 3.77141V2.26285ZM4.75 8.29711C4.75 8.09706 4.81256 7.9052 4.92391 7.76375C5.03525 7.62229 5.18628 7.54282 5.34375 7.54282H13.6562C13.8137 7.54282 13.9647 7.62229 14.0761 7.76375C14.1874 7.9052 14.25 8.09706 14.25 8.29711V9.80567C14.25 10.0057 14.1874 10.1976 14.0761 10.339C13.9647 10.4805 13.8137 10.56 13.6562 10.56H5.34375C5.18628 10.56 5.03525 10.4805 4.92391 10.339C4.81256 10.1976 4.75 10.0057 4.75 9.80567V8.29711ZM7.125 14.3314C7.125 14.1313 7.18756 13.9395 7.29891 13.798C7.41025 13.6566 7.56128 13.5771 7.71875 13.5771H14.8438C15.0012 13.5771 15.1522 13.6566 15.2636 13.798C15.3749 13.9395 15.4375 14.1313 15.4375 14.3314V15.8399C15.4375 16.04 15.3749 16.2318 15.2636 16.3733C15.1522 16.5147 15.0012 16.5942 14.8438 16.5942H7.71875C7.56128 16.5942 7.41025 16.5147 7.29891 16.3733C7.18756 16.2318 7.125 16.04 7.125 15.8399V14.3314ZM9.5 20.3656C9.5 20.1656 9.56256 19.9737 9.6739 19.8323C9.78525 19.6908 9.93628 19.6113 10.0938 19.6113H18.4062C18.5637 19.6113 18.7147 19.6908 18.8261 19.8323C18.9374 19.9737 19 20.1656 19 20.3656V21.8742C19 22.0742 18.9374 22.2661 18.8261 22.4075C18.7147 22.549 18.5637 22.6285 18.4062 22.6285H10.0938C9.93628 22.6285 9.78525 22.549 9.6739 22.4075C9.56256 22.2661 9.5 22.0742 9.5 21.8742V20.3656Z" fill="white"/>
</svg>
