<svg width="22" height="22" viewBox="0 0 22 22" fill="none" xmlns="http://www.w3.org/2000/svg">
<g clip-path="url(#clip0_2294_141778)">
<path d="M16.701 0.200758C16.7648 0.136734 16.8407 0.0859374 16.9242 0.0512785C17.0077 0.0166197 17.0973 -0.0012207 17.1877 -0.0012207C17.2782 -0.0012207 17.3677 0.0166197 17.4512 0.0512785C17.5347 0.0859374 17.6106 0.136734 17.6745 0.200758L21.7995 4.32576C21.8635 4.38962 21.9143 4.46549 21.9489 4.54901C21.9836 4.63254 22.0014 4.72208 22.0014 4.81251C22.0014 4.90294 21.9836 4.99248 21.9489 5.076C21.9143 5.15953 21.8635 5.23539 21.7995 5.29926L8.04947 19.0493C7.98349 19.1148 7.90491 19.1662 7.81847 19.2005L0.943472 21.9505C0.818534 22.0005 0.681666 22.0128 0.549836 21.9857C0.418006 21.9587 0.297012 21.8935 0.201853 21.7984C0.106694 21.7032 0.0415551 21.5822 0.0145124 21.4504C-0.0125304 21.3186 -0.000288035 21.1817 0.0497216 21.0568L2.79972 14.1818C2.834 14.0953 2.88545 14.0167 2.95097 13.9508L16.701 0.200758ZM15.4098 3.43751L18.5627 6.59038L20.3406 4.81251L17.1877 1.65963L15.4098 3.43751ZM17.5906 7.56251L14.4377 4.40963L5.50022 13.3471V13.75H6.18772C6.37006 13.75 6.54493 13.8224 6.67386 13.9514C6.80279 14.0803 6.87522 14.2552 6.87522 14.4375V15.125H7.56272C7.74506 15.125 7.91993 15.1974 8.04886 15.3264C8.17779 15.4553 8.25022 15.6302 8.25022 15.8125V16.5H8.6531L17.5906 7.56251ZM4.16922 14.6781L4.02347 14.8239L1.92247 20.0778L7.17635 17.9768L7.3221 17.831C7.19095 17.782 7.07789 17.6941 6.99803 17.5791C6.91817 17.4641 6.87533 17.3275 6.87522 17.1875V16.5H6.18772C6.00538 16.5 5.83052 16.4276 5.70159 16.2986C5.57265 16.1697 5.50022 15.9948 5.50022 15.8125V15.125H4.81272C4.67272 15.1249 4.53608 15.0821 4.42109 15.0022C4.3061 14.9223 4.21822 14.8093 4.16922 14.6781Z" fill="#08B1BA"/>
</g>
<defs>
<clipPath id="clip0_2294_141778">
<rect width="22" height="22" fill="white"/>
</clipPath>
</defs>
</svg>
