<svg width="25" height="24" viewBox="0 0 25 24" fill="none" xmlns="http://www.w3.org/2000/svg">
<g clip-path="url(#clip0_2270_140921)">
<path d="M4.56445 12C4.76337 12 4.95413 11.921 5.09478 11.7803C5.23544 11.6397 5.31445 11.4489 5.31445 11.25C5.31445 11.0511 5.23544 10.8603 5.09478 10.7197C4.95413 10.579 4.76337 10.5 4.56445 10.5C4.36554 10.5 4.17478 10.579 4.03412 10.7197C3.89347 10.8603 3.81445 11.0511 3.81445 11.25C3.81445 11.4489 3.89347 11.6397 4.03412 11.7803C4.17478 11.921 4.36554 12 4.56445 12Z" fill="#FAB428"/>
<path d="M8.31445 1.5C7.5188 1.5 6.75574 1.81607 6.19313 2.37868C5.63052 2.94129 5.31445 3.70435 5.31445 4.5V7.5H3.81445C3.0188 7.5 2.25574 7.81607 1.69313 8.37868C1.13052 8.94129 0.814453 9.70435 0.814453 10.5L0.814453 15C0.814453 15.7956 1.13052 16.5587 1.69313 17.1213C2.25574 17.6839 3.0188 18 3.81445 18H5.31445V19.5C5.31445 20.2956 5.63052 21.0587 6.19313 21.6213C6.75574 22.1839 7.5188 22.5 8.31445 22.5H17.3145C18.1101 22.5 18.8732 22.1839 19.4358 21.6213C19.9984 21.0587 20.3145 20.2956 20.3145 19.5V18H21.8145C22.6101 18 23.3732 17.6839 23.9358 17.1213C24.4984 16.5587 24.8145 15.7956 24.8145 15V10.5C24.8145 9.70435 24.4984 8.94129 23.9358 8.37868C23.3732 7.81607 22.6101 7.5 21.8145 7.5H20.3145V4.5C20.3145 3.70435 19.9984 2.94129 19.4358 2.37868C18.8732 1.81607 18.1101 1.5 17.3145 1.5H8.31445ZM6.81445 4.5C6.81445 4.10218 6.97249 3.72064 7.25379 3.43934C7.5351 3.15804 7.91663 3 8.31445 3H17.3145C17.7123 3 18.0938 3.15804 18.3751 3.43934C18.6564 3.72064 18.8145 4.10218 18.8145 4.5V7.5H6.81445V4.5ZM8.31445 12C7.5188 12 6.75574 12.3161 6.19313 12.8787C5.63052 13.4413 5.31445 14.2044 5.31445 15V16.5H3.81445C3.41663 16.5 3.0351 16.342 2.75379 16.0607C2.47249 15.7794 2.31445 15.3978 2.31445 15V10.5C2.31445 10.1022 2.47249 9.72064 2.75379 9.43934C3.0351 9.15804 3.41663 9 3.81445 9H21.8145C22.2123 9 22.5938 9.15804 22.8751 9.43934C23.1564 9.72064 23.3145 10.1022 23.3145 10.5V15C23.3145 15.3978 23.1564 15.7794 22.8751 16.0607C22.5938 16.342 22.2123 16.5 21.8145 16.5H20.3145V15C20.3145 14.2044 19.9984 13.4413 19.4358 12.8787C18.8732 12.3161 18.1101 12 17.3145 12H8.31445ZM18.8145 15V19.5C18.8145 19.8978 18.6564 20.2794 18.3751 20.5607C18.0938 20.842 17.7123 21 17.3145 21H8.31445C7.91663 21 7.5351 20.842 7.25379 20.5607C6.97249 20.2794 6.81445 19.8978 6.81445 19.5V15C6.81445 14.6022 6.97249 14.2206 7.25379 13.9393C7.5351 13.658 7.91663 13.5 8.31445 13.5H17.3145C17.7123 13.5 18.0938 13.658 18.3751 13.9393C18.6564 14.2206 18.8145 14.6022 18.8145 15Z" fill="#FAB428"/>
</g>
<defs>
<clipPath id="clip0_2270_140921">
<rect width="24" height="24" fill="white" transform="translate(0.814453)"/>
</clipPath>
</defs>
</svg>
