<svg width="25" height="24" viewBox="0 0 25 24" fill="none" xmlns="http://www.w3.org/2000/svg">
<g clip-path="url(#clip0_2270_140918)">
<path d="M1.56445 14.8501C1.76337 14.8501 1.95413 14.9291 2.09478 15.0698C2.23544 15.2104 2.31445 15.4012 2.31445 15.6001V19.3501C2.31445 19.7479 2.47249 20.1295 2.75379 20.4108C3.0351 20.6921 3.41663 20.8501 3.81445 20.8501H21.8145C22.2123 20.8501 22.5938 20.6921 22.8751 20.4108C23.1564 20.1295 23.3145 19.7479 23.3145 19.3501V15.6001C23.3145 15.4012 23.3935 15.2104 23.5341 15.0698C23.6748 14.9291 23.8655 14.8501 24.0645 14.8501C24.2634 14.8501 24.4541 14.9291 24.5948 15.0698C24.7354 15.2104 24.8145 15.4012 24.8145 15.6001V19.3501C24.8145 20.1457 24.4984 20.9088 23.9358 21.4714C23.3732 22.034 22.6101 22.3501 21.8145 22.3501H3.81445C3.0188 22.3501 2.25574 22.034 1.69313 21.4714C1.13052 20.9088 0.814453 20.1457 0.814453 19.3501V15.6001C0.814453 15.4012 0.893471 15.2104 1.03412 15.0698C1.17478 14.9291 1.36554 14.8501 1.56445 14.8501Z" fill="#F16A1B"/>
<path d="M12.2834 17.781C12.3531 17.8508 12.4359 17.9063 12.527 17.9441C12.6181 17.9819 12.7158 18.0013 12.8144 18.0013C12.9131 18.0013 13.0108 17.9819 13.1019 17.9441C13.193 17.9063 13.2758 17.8508 13.3454 17.781L17.8454 13.281C17.9863 13.1402 18.0654 12.9492 18.0654 12.75C18.0654 12.5508 17.9863 12.3598 17.8454 12.219C17.7046 12.0782 17.5136 11.9991 17.3144 11.9991C17.1153 11.9991 16.9243 12.0782 16.7834 12.219L13.5644 15.4395V2.25C13.5644 2.05109 13.4854 1.86032 13.3448 1.71967C13.2041 1.57902 13.0133 1.5 12.8144 1.5C12.6155 1.5 12.4247 1.57902 12.2841 1.71967C12.1434 1.86032 12.0644 2.05109 12.0644 2.25V15.4395L8.84542 12.219C8.70459 12.0782 8.51359 11.9991 8.31442 11.9991C8.11526 11.9991 7.92425 12.0782 7.78342 12.219C7.64259 12.3598 7.56348 12.5508 7.56348 12.75C7.56348 12.9492 7.64259 13.1402 7.78342 13.281L12.2834 17.781Z" fill="#F16A1B"/>
</g>
<defs>
<clipPath id="clip0_2270_140918">
<rect width="24" height="24" fill="white" transform="translate(0.814453)"/>
</clipPath>
</defs>
</svg>
