<svg width="41" height="34" viewBox="0 0 41 34" fill="none" xmlns="http://www.w3.org/2000/svg">
<path d="M40.1056 30.9708C39.9238 31.6298 39.6965 32.2665 39.2163 32.785C38.5346 33.5218 37.7029 33.9417 36.6834 33.9821C36.5395 33.988 36.3971 33.994 36.2532 33.994C25.4671 33.994 14.6796 33.9895 3.8935 34C2.5619 34 1.45603 33.5726 0.692521 32.4832C-0.140671 31.2921 -0.237624 30.0024 0.486496 28.7381C1.40301 27.1391 2.3892 25.5804 3.35116 24.0068C7.84283 16.6572 12.339 9.31067 16.8231 1.95812C17.3942 1.02111 18.1517 0.342648 19.2454 0.0975626C20.7815 -0.246154 22.248 0.329198 23.1039 1.65176C23.931 2.92949 24.7021 4.24159 25.4959 5.53875C30.1239 13.1065 34.7549 20.6728 39.3708 28.2495C39.6814 28.7576 39.8632 29.3419 40.1056 29.8918V30.9723V30.9708ZM20.0317 31.4176C25.3929 31.4176 30.7526 31.4176 36.1138 31.4146C36.3335 31.4146 36.5592 31.4027 36.7728 31.3564C37.1515 31.2742 37.4651 30.9424 37.4454 30.5628C37.4302 30.2714 37.3424 29.9516 37.1909 29.702C34.1763 24.745 31.1465 19.7955 28.1197 14.8445C25.7595 10.9829 23.3963 7.12284 21.0406 3.25826C20.8194 2.89661 20.5573 2.6067 20.1059 2.59175C19.5969 2.57382 19.3166 2.89661 19.0743 3.29413C13.707 12.0873 8.33214 20.8775 2.96032 29.6692C2.88003 29.8007 2.79671 29.9337 2.74066 30.0756C2.50737 30.6555 2.83004 31.2533 3.4466 31.3728C3.63596 31.4102 3.83441 31.4161 4.02832 31.4161C9.36227 31.4176 14.6977 31.4176 20.0317 31.4176Z" fill="#F16A1B"/>
<path d="M21.6493 16.9661C21.5962 18.5322 21.5296 20.0999 21.4963 21.6675C21.4841 22.2205 21.2418 22.5507 20.7282 22.7405C20.251 22.9169 19.7799 22.9049 19.3163 22.7361C18.8846 22.5791 18.668 22.2653 18.6513 21.7946C18.5407 18.61 18.4195 15.4253 18.3029 12.2407C18.2498 10.7986 19.533 10.4444 20.5282 10.6297C21.3963 10.7926 21.8507 11.3246 21.8326 12.1511C21.7977 13.7561 21.7341 15.3611 21.6826 16.9676H21.6508L21.6493 16.9661Z" fill="#F16A1B"/>
<path d="M21.9471 26.3601C21.9425 27.3599 21.0775 28.2027 20.0701 28.1923C19.0642 28.1803 18.2492 27.3614 18.2446 26.3556C18.2401 25.3349 19.0672 24.5055 20.0958 24.4995C21.0942 24.4936 21.9531 25.3573 21.9486 26.3601H21.9471Z" fill="#F16A1B"/>
</svg>
