<svg width="26" height="22" viewBox="0 0 26 22" fill="none" xmlns="http://www.w3.org/2000/svg">
<path fill-rule="evenodd" clip-rule="evenodd" d="M26 11.5C26 11.5 21.3125 3 13.5 3C5.6875 3 1 11.5 1 11.5C1 11.5 5.6875 20 13.5 20C21.3125 20 26 11.5 26 11.5ZM2.83281 11.5C3.58831 12.6357 4.45726 13.6935 5.42656 14.6574C7.4375 16.6495 10.1875 18.4545 13.5 18.4545C16.8125 18.4545 19.5609 16.6495 21.575 14.6574C22.5443 13.6935 23.4132 12.6357 24.1688 11.5C23.4133 10.3643 22.5443 9.30651 21.575 8.34264C19.5609 6.35054 16.8109 4.54545 13.5 4.54545C10.1875 4.54545 7.43906 6.35054 5.425 8.34264C4.45569 9.30651 3.58674 10.3643 2.83125 11.5H2.83281Z" fill="#F16A1B"/>
<path fill-rule="evenodd" clip-rule="evenodd" d="M13.5 7.57143C12.4581 7.57143 11.4588 7.98533 10.7221 8.72208C9.98533 9.45883 9.57143 10.4581 9.57143 11.5C9.57143 12.5419 9.98533 13.5412 10.7221 14.2779C11.4588 15.0147 12.4581 15.4286 13.5 15.4286C14.5419 15.4286 15.5412 15.0147 16.2779 14.2779C17.0147 13.5412 17.4286 12.5419 17.4286 11.5C17.4286 10.4581 17.0147 9.45883 16.2779 8.72208C15.5412 7.98533 14.5419 7.57143 13.5 7.57143ZM8 11.5C8 10.0413 8.57946 8.64236 9.61091 7.61091C10.6424 6.57946 12.0413 6 13.5 6C14.9587 6 16.3576 6.57946 17.3891 7.61091C18.4205 8.64236 19 10.0413 19 11.5C19 12.9587 18.4205 14.3576 17.3891 15.3891C16.3576 16.4205 14.9587 17 13.5 17C12.0413 17 10.6424 16.4205 9.61091 15.3891C8.57946 14.3576 8 12.9587 8 11.5Z" fill="#F16A1B"/>
</svg>
