<svg width="20" height="21" viewBox="0 0 20 21" fill="none" xmlns="http://www.w3.org/2000/svg">
<g clip-path="url(#clip0_2425_45417)">
<path fill-rule="evenodd" clip-rule="evenodd" d="M19.7713 0.641029C19.8428 0.699699 19.9005 0.773527 19.94 0.857185C19.9796 0.940842 20.0001 1.03224 20 1.12478V18.6248C19.9999 18.7692 19.9498 18.9092 19.8582 19.0208C19.7666 19.1325 19.6391 19.209 19.4975 19.2373L13.2475 20.4873C13.1666 20.5034 13.0834 20.5034 13.0025 20.4873L6.875 19.2623L0.7475 20.4873C0.656861 20.5054 0.563332 20.5032 0.473651 20.4808C0.38397 20.4584 0.30037 20.4164 0.228874 20.3578C0.157378 20.2993 0.0997667 20.2255 0.0601897 20.142C0.0206127 20.0585 5.58159e-05 19.9672 0 19.8748L0 2.37478C8.72276e-05 2.23035 0.0501951 2.0904 0.141804 1.97874C0.233413 1.86708 0.360869 1.79059 0.5025 1.76228L6.7525 0.512279C6.83337 0.496115 6.91663 0.496115 6.9975 0.512279L13.125 1.73728L19.2525 0.512279C19.3431 0.494049 19.4366 0.496141 19.5263 0.518404C19.616 0.540667 19.6997 0.582548 19.7713 0.641029V0.641029ZM12.5 2.88728L7.5 1.88728V18.1123L12.5 19.1123V2.88728ZM13.75 19.1123L18.75 18.1123V1.88728L13.75 2.88728V19.1123ZM6.25 18.1123V1.88728L1.25 2.88728V19.1123L6.25 18.1123Z" fill="white"/>
</g>
<defs>
<clipPath id="clip0_2425_45417">
<rect width="20" height="20" fill="white" transform="translate(0 0.5)"/>
</clipPath>
</defs>
</svg>
