<svg width="202" height="202" viewBox="0 0 202 202" fill="none" xmlns="http://www.w3.org/2000/svg">
<path fill-rule="evenodd" clip-rule="evenodd" d="M101.025 0C75.7192 0 55.1894 20.5224 55.1894 45.8677C55.1894 71.2131 75.7192 91.6862 101.074 91.6862C126.379 91.6862 146.958 71.1638 146.958 45.8185C146.909 20.5224 126.379 0 101.074 0H101.025ZM101.025 8.957C121.308 8.85857 137.85 25.2469 137.9 45.5232C137.9 45.6216 137.9 45.7201 137.9 45.8185C137.998 66.0948 121.604 82.6308 101.32 82.68C101.222 82.68 101.123 82.68 101.025 82.68C80.7409 82.7784 64.1989 66.3901 64.1496 46.1138C64.1496 46.0153 64.1496 45.9169 64.1496 45.8185C64.0512 25.5422 80.4455 9.00621 100.729 8.957C100.828 8.957 100.926 8.957 101.025 8.957ZM101.025 96.46C45.2937 96.4108 0.0492323 141.54 0 197.251C0 197.3 0 197.349 0 197.448C0 199.908 2.01852 201.877 4.48014 201.926H121.702C124.164 201.729 126.035 199.564 125.838 197.103C125.69 194.889 123.918 193.166 121.702 192.969H9.89569C12.3081 144.149 51.5462 105.466 101.025 105.466C115.007 105.466 128.25 108.517 140.066 114.079C142.33 115.112 144.989 114.177 146.023 111.913C147.106 109.699 146.171 106.992 143.906 105.958C130.466 99.7081 115.844 96.46 101.025 96.5092V96.46ZM157.642 117.671L119.733 136.619C117.911 137.652 117.222 139.08 117.222 140.605V181.256C117.222 183.077 118.305 184.701 119.979 185.39L157.888 201.631C159.02 202.123 160.3 202.123 161.383 201.631L199.292 185.39C200.917 184.652 202 183.028 202 181.256V140.605C202 138.932 201.065 137.406 199.538 136.619L161.63 117.671C160.399 116.835 158.823 116.835 157.592 117.671H157.642ZM159.611 126.678L186.984 140.31L159.611 151.974L132.336 140.31L159.611 126.678ZM126.182 147.397L155.131 159.848V190.705L126.182 178.303V147.397ZM193.04 147.446V178.303L164.042 190.705V159.897L193.04 147.495V147.446Z" fill="white"/>
</svg>
