<svg width="23" height="18" viewBox="0 0 23 18" fill="none" xmlns="http://www.w3.org/2000/svg">
<path fill-rule="evenodd" clip-rule="evenodd" d="M7.83421 15.1774C7.83421 15.3653 7.91147 15.5455 8.04898 15.6783C8.1865 15.8111 8.37302 15.8858 8.5675 15.8858L20.3001 15.8858C20.4946 15.8858 20.6811 15.8111 20.8186 15.6783C20.9562 15.5455 21.0334 15.3653 21.0334 15.1774L21.0334 2.42743C21.0334 2.23957 20.9562 2.0594 20.8186 1.92656C20.6811 1.79372 20.4946 1.71909 20.3001 1.71909L8.5675 1.71909C8.37302 1.71909 8.1865 1.79372 8.04898 1.92656C7.91146 2.0594 7.83421 2.23957 7.83421 2.42743L7.83421 5.26076C7.83421 5.44862 7.75695 5.62879 7.61943 5.76163C7.48191 5.89447 7.2954 5.9691 7.10092 5.9691C6.90644 5.9691 6.71992 5.89447 6.5824 5.76163C6.44489 5.62879 6.36763 5.44862 6.36763 5.26076L6.36763 2.42743C6.36763 1.86384 6.5994 1.32334 7.01195 0.924827C7.42451 0.526311 7.98406 0.302429 8.5675 0.302429L20.3001 0.302427C20.8836 0.302427 21.4431 0.52631 21.8557 0.924826C22.2682 1.32334 22.5 1.86384 22.5 2.42743L22.5 15.1774C22.5 15.741 22.2682 16.2815 21.8557 16.68C21.4431 17.0785 20.8836 17.3024 20.3001 17.3024L8.5675 17.3024C7.98406 17.3024 7.42451 17.0785 7.01196 16.68C6.5994 16.2815 6.36763 15.741 6.36763 15.1774L6.36763 12.3441C6.36763 12.1562 6.44489 11.9761 6.5824 11.8432C6.71992 11.7104 6.90644 11.6358 7.10092 11.6358C7.2954 11.6358 7.48191 11.7104 7.61943 11.8432C7.75695 11.9761 7.83421 12.1562 7.83421 12.3441L7.83421 15.1774Z" fill="#08B1BA"/>
<path fill-rule="evenodd" clip-rule="evenodd" d="M16.4184 8.30001C16.4866 8.36581 16.5408 8.44398 16.5778 8.53003C16.6148 8.61609 16.6338 8.70834 16.6338 8.80151C16.6338 8.89468 16.6148 8.98694 16.5778 9.07299C16.5408 9.15905 16.4866 9.23722 16.4184 9.30301L12.0186 13.553C11.8809 13.686 11.6942 13.7607 11.4995 13.7607C11.3047 13.7607 11.118 13.686 10.9803 13.553C10.8426 13.42 10.7652 13.2396 10.7652 13.0515C10.7652 12.8634 10.8426 12.683 10.9803 12.55L14.129 9.50985L1.2334 9.50985C1.03892 9.50985 0.8524 9.43522 0.714882 9.30238C0.577364 9.16954 0.500106 8.98938 0.500106 8.80152C0.500106 8.61365 0.577364 8.43349 0.714881 8.30065C0.8524 8.16781 1.03892 8.09318 1.2334 8.09318L14.129 8.09318L10.9803 5.05301C10.9121 4.98716 10.858 4.90897 10.8211 4.82292C10.7842 4.73688 10.7652 4.64465 10.7652 4.55151C10.7652 4.45838 10.7842 4.36615 10.8211 4.2801C10.858 4.19406 10.9121 4.11587 10.9803 4.05001C11.0485 3.98416 11.1294 3.93191 11.2185 3.89627C11.3076 3.86063 11.403 3.84229 11.4995 3.84229C11.5959 3.84229 11.6913 3.86063 11.7804 3.89627C11.8695 3.93191 11.9504 3.98416 12.0186 4.05001L16.4184 8.30001Z" fill="#08B1BA"/>
</svg>
