<svg width="14" height="14" viewBox="0 0 14 14" fill="none" xmlns="http://www.w3.org/2000/svg">
<path d="M7.354 0.145978C7.30756 0.099415 7.25238 0.0624722 7.19163 0.0372657C7.13089 0.0120593 7.06577 -0.000915527 7 -0.000915527C6.93423 -0.000915527 6.86911 0.0120593 6.80837 0.0372657C6.74762 0.0624722 6.69245 0.099415 6.646 0.145978L0.646001 6.14598C0.599599 6.1925 0.562821 6.24771 0.537769 6.30845C0.512717 6.36919 0.499883 6.43427 0.500001 6.49998V13.5C0.500001 13.6326 0.552679 13.7598 0.646447 13.8535C0.740216 13.9473 0.867393 14 1 14H5.5C5.63261 14 5.75979 13.9473 5.85355 13.8535C5.94732 13.7598 6 13.6326 6 13.5V9.49998H8V13.5C8 13.6326 8.05268 13.7598 8.14645 13.8535C8.24022 13.9473 8.36739 14 8.5 14H13C13.1326 14 13.2598 13.9473 13.3536 13.8535C13.4473 13.7598 13.5 13.6326 13.5 13.5V6.49998C13.5001 6.43427 13.4873 6.36919 13.4622 6.30845C13.4372 6.24771 13.4004 6.1925 13.354 6.14598L12 4.79298V1.49998C12 1.36737 11.9473 1.24019 11.8536 1.14643C11.7598 1.05266 11.6326 0.999978 11.5 0.999978H10.5C10.3674 0.999978 10.2402 1.05266 10.1464 1.14643C10.0527 1.24019 10 1.36737 10 1.49998V2.79298L7.354 0.145978ZM1.5 13V6.70698L7 1.20698L12.5 6.70698V13H9V8.99998C9 8.86737 8.94732 8.74019 8.85355 8.64642C8.75979 8.55266 8.63261 8.49998 8.5 8.49998H5.5C5.36739 8.49998 5.24022 8.55266 5.14645 8.64642C5.05268 8.74019 5 8.86737 5 8.99998V13H1.5Z" fill="white"/>
</svg>
