<svg width="14" height="14" viewBox="0 0 14 14" fill="none" xmlns="http://www.w3.org/2000/svg">
<path fill-rule="evenodd" clip-rule="evenodd" d="M9.4692 0.636393C9.51255 0.593158 9.56404 0.558856 9.62074 0.535452C9.67743 0.512047 9.73821 0.5 9.79959 0.5C9.86097 0.5 9.92174 0.512047 9.97844 0.535452C10.0351 0.558856 10.0866 0.593158 10.13 0.636393L13.8631 4.35044C13.9508 4.43762 14 4.55585 14 4.67913C14 4.80242 13.9508 4.92065 13.8631 5.00783C13.7755 5.095 13.6567 5.14398 13.5328 5.14398C13.4088 5.14398 13.29 5.095 13.2024 5.00783L10.2662 2.0858V11.1787C10.2662 11.7944 10.0204 12.3848 9.58285 12.8201C9.14528 13.2554 8.55181 13.5 7.933 13.5H0.466647C0.342884 13.5 0.224191 13.4511 0.136678 13.364C0.0491638 13.277 0 13.1589 0 13.0357C0 12.9126 0.0491638 12.7945 0.136678 12.7075C0.224191 12.6204 0.342884 12.5715 0.466647 12.5715H7.933C8.30429 12.5715 8.66037 12.4248 8.92291 12.1636C9.18545 11.9024 9.33294 11.5481 9.33294 11.1787V2.0858L6.3968 5.00783C6.35341 5.05099 6.3019 5.08523 6.24521 5.10859C6.18853 5.13195 6.12777 5.14398 6.06641 5.14398C6.00505 5.14398 5.94429 5.13195 5.88761 5.10859C5.83092 5.08523 5.77941 5.05099 5.73602 5.00783C5.69264 4.96466 5.65822 4.91342 5.63474 4.85702C5.61126 4.80062 5.59918 4.74018 5.59918 4.67913C5.59918 4.61809 5.61126 4.55764 5.63474 4.50125C5.65822 4.44485 5.69264 4.39361 5.73602 4.35044L9.4692 0.636393Z" fill="white"/>
</svg>
