<svg width="158" height="214" viewBox="0 0 158 214" fill="none" xmlns="http://www.w3.org/2000/svg">
<path d="M157.754 41.4835C157.617 41.1587 157.405 40.8737 157.171 40.6116C157.125 40.5603 157.102 40.4862 157.051 40.4349L117.455 0.946051C117.421 0.911857 117.375 0.900459 117.335 0.871964C117.061 0.621205 116.752 0.398941 116.403 0.250765C116.009 0.0854922 115.58 6.20478e-06 115.146 6.20478e-06H8.77555C3.93899 -0.00569286 0 3.91527 0 8.74238V205.241C0 210.068 3.93899 213.994 8.77555 213.994H149.219C154.055 213.994 157.994 210.068 157.994 205.241V42.7316C157.994 42.2985 157.909 41.8711 157.748 41.4835H157.754ZM118.404 11.0676L146.898 39.4888H120.68C119.428 39.4888 118.404 38.4744 118.404 37.2206V11.0676ZM149.224 207.509H8.77555C7.52354 207.509 6.5002 206.494 6.5002 205.241V8.74238C6.5002 7.49428 7.51782 6.47415 8.77555 6.47415H111.898V37.2206C111.898 42.0477 115.837 45.9687 120.674 45.9687H151.494V205.235C151.494 206.483 150.476 207.503 149.224 207.503V207.509Z" fill="white"/>
<path d="M114.488 102.929H83.0846V71.6238C83.0846 69.3784 81.2552 67.5547 79.0027 67.5547C76.7502 67.5547 74.9208 69.3784 74.9208 71.6238V102.929H43.5175C41.265 102.929 39.4355 104.753 39.4355 106.998C39.4355 109.243 41.265 111.067 43.5175 111.067H74.9208V142.372C74.9208 144.617 76.7502 146.441 79.0027 146.441C81.2552 146.441 83.0846 144.617 83.0846 142.372V111.067H114.488C116.74 111.067 118.57 109.243 118.57 106.998C118.57 104.753 116.74 102.929 114.488 102.929Z" fill="white"/>
</svg>
