<svg width="17" height="28" viewBox="0 0 17 28" fill="none" xmlns="http://www.w3.org/2000/svg">
<path fill-rule="evenodd" clip-rule="evenodd" d="M8.5 1.74939C7.83026 1.74939 7.16708 1.88519 6.54831 2.14903C5.92955 2.41288 5.36733 2.7996 4.89376 3.28712C4.42018 3.77464 4.04451 4.3534 3.78821 4.99038C3.53191 5.62735 3.4 6.31006 3.4 6.99951C3.4 7.68897 3.53191 8.37167 3.78821 9.00865C4.04451 9.64562 4.42018 10.2244 4.89376 10.7119C5.36733 11.1994 5.92955 11.5862 6.54831 11.85C7.16708 12.1138 7.83026 12.2496 8.5 12.2496C9.8526 12.2496 11.1498 11.6965 12.1062 10.7119C13.0627 9.72732 13.6 8.39193 13.6 6.99951C13.6 5.60709 13.0627 4.27171 12.1062 3.28712C11.1498 2.30253 9.8526 1.74939 8.5 1.74939ZM1.7 6.99951C1.70012 5.65238 2.07784 4.33389 2.78782 3.20226C3.4978 2.07063 4.5099 1.17393 5.70266 0.619752C6.89542 0.0655755 8.21818 -0.122535 9.51221 0.0779923C10.8062 0.27852 12.0166 0.859167 12.998 1.75026C13.9794 2.64135 14.6902 3.80504 15.0451 5.10169C15.4001 6.39834 15.384 7.77286 14.9988 9.06034C14.6137 10.3478 13.8759 11.4935 12.8739 12.36C11.8719 13.2266 10.6484 13.777 9.35 13.9454V23.6249C9.35 23.857 9.26045 24.0795 9.10104 24.2436C8.94164 24.4077 8.72543 24.4999 8.5 24.4999C8.27457 24.4999 8.05837 24.4077 7.89896 24.2436C7.73955 24.0795 7.65 23.857 7.65 23.6249V13.9472C6.00604 13.734 4.49427 12.9102 3.39866 11.6305C2.30306 10.3509 1.69902 8.70349 1.7 6.99776V6.99951ZM5.9381 22.0044C5.97497 22.2332 5.92208 22.4677 5.79107 22.6564C5.66005 22.8451 5.46163 22.9725 5.2394 23.0106C4.029 23.2171 3.0634 23.5269 2.4259 23.8734C2.19171 23.9893 1.97888 24.1462 1.7969 24.3372C1.75576 24.3833 1.72295 24.4367 1.7 24.4947V24.4999L1.7034 24.5139C1.71009 24.5343 1.71923 24.5537 1.7306 24.5717C1.7977 24.6729 1.88105 24.7617 1.9771 24.8342C2.2576 25.0617 2.7166 25.3067 3.3592 25.5254C4.6359 25.963 6.4532 26.25 8.5 26.25C10.5468 26.25 12.3641 25.9647 13.6408 25.5254C14.2834 25.3049 14.7424 25.0617 15.0229 24.8342C15.1195 24.7618 15.2034 24.673 15.2711 24.5717C15.2819 24.5536 15.2904 24.5342 15.2966 24.5139L15.3 24.4999V24.4929C15.2771 24.4349 15.2442 24.3816 15.2031 24.3354C15.021 24.1451 14.8082 23.9887 14.5741 23.8734C13.9349 23.5269 12.971 23.2171 11.7606 23.0106C11.6479 22.9949 11.5393 22.956 11.4414 22.8963C11.3435 22.8366 11.2583 22.7573 11.1908 22.663C11.1232 22.5688 11.0747 22.4615 11.0482 22.3476C11.0216 22.2337 11.0176 22.1155 11.0363 22C11.0549 21.8844 11.0959 21.7739 11.1569 21.675C11.2178 21.5761 11.2974 21.4908 11.3909 21.4241C11.4845 21.3574 11.5901 21.3108 11.7015 21.2869C11.8129 21.263 11.9278 21.2624 12.0394 21.2851C13.3484 21.5073 14.5078 21.8591 15.3663 22.3246C16.15 22.7499 17 23.4499 17 24.4999C17 25.2454 16.558 25.8159 16.0752 26.2097C15.5822 26.6087 14.9192 26.9325 14.178 27.1862C12.6854 27.699 10.6777 28 8.5 28C6.3223 28 4.3146 27.699 2.822 27.1862C2.0808 26.9325 1.4178 26.6087 0.9248 26.2097C0.442 25.8159 0 25.2454 0 24.4999C0 23.4516 0.85 22.7499 1.6337 22.3246C2.4922 21.8591 3.6516 21.5073 4.9606 21.2851C5.18286 21.2471 5.41067 21.3016 5.59396 21.4365C5.77725 21.5713 5.90103 21.7756 5.9381 22.0044Z" fill="#F16A1B"/>
</svg>
