<svg width="39" height="39" viewBox="0 0 39 39" fill="none" xmlns="http://www.w3.org/2000/svg">
<path d="M33.7692 8.88735C33.8827 9.00056 33.9727 9.13505 34.0342 9.28312C34.0956 9.43118 34.1273 9.58992 34.1273 9.75023C34.1273 9.91053 34.0956 10.0693 34.0342 10.2173C33.9727 10.3654 33.8827 10.4999 33.7692 10.6131L16.7067 27.6756C16.5935 27.7891 16.459 27.8791 16.3109 27.9406C16.1629 28.002 16.0041 28.0337 15.8438 28.0337C15.6835 28.0337 15.5248 28.002 15.3767 27.9406C15.2287 27.8791 15.0942 27.7891 14.9809 27.6756L6.4497 19.1444C6.22085 18.9155 6.09229 18.6051 6.09229 18.2815C6.09229 17.9578 6.22085 17.6474 6.4497 17.4186C6.67855 17.1898 6.98893 17.0612 7.31257 17.0612C7.63622 17.0612 7.9466 17.1898 8.17545 17.4186L15.8438 25.0894L32.0434 8.88735C32.1567 8.77385 32.2912 8.6838 32.4392 8.62236C32.5873 8.56092 32.746 8.5293 32.9063 8.5293C33.0666 8.5293 33.2254 8.56092 33.3734 8.62236C33.5215 8.6838 33.656 8.77385 33.7692 8.88735Z" fill="#08B1BA"/>
</svg>
