<svg width="18" height="20" viewBox="0 0 18 20" fill="none" xmlns="http://www.w3.org/2000/svg">
<path d="M8.83854 10.0008C11.3166 10.0008 13.3255 8.07857 13.3255 5.70741C13.3255 3.33626 11.3166 1.41406 8.83854 1.41406C6.36045 1.41406 4.35156 3.33626 4.35156 5.70741C4.35156 8.07857 6.36045 10.0008 8.83854 10.0008Z" stroke="white" stroke-width="2"/>
<path d="M13.3252 11.7188H13.6411C14.2971 11.7189 14.9306 11.9483 15.4223 12.3639C15.9141 12.7794 16.2304 13.3524 16.3117 13.9753L16.6626 16.6578C16.6942 16.8995 16.6717 17.1448 16.5966 17.3775C16.5215 17.6102 16.3955 17.8249 16.227 18.0075C16.0586 18.19 15.8515 18.3362 15.6194 18.4363C15.3874 18.5364 15.1358 18.5882 14.8813 18.5881H2.79518C2.54066 18.5882 2.28904 18.5364 2.05702 18.4363C1.825 18.3362 1.61789 18.19 1.44942 18.0075C1.28096 17.8249 1.155 17.6102 1.0799 17.3775C1.00481 17.1448 0.982292 16.8995 1.01385 16.6578L1.36384 13.9753C1.44523 13.3521 1.76175 12.7788 2.2539 12.3633C2.74604 11.9477 3.3799 11.7185 4.03627 11.7188H4.35126" stroke="white" stroke-width="2" stroke-linecap="round" stroke-linejoin="round"/>
</svg>
