<svg width="17" height="18" viewBox="0 0 17 18" fill="none" xmlns="http://www.w3.org/2000/svg">
<path d="M9.10835 7.17568C10.6756 7.17568 11.9462 5.90513 11.9462 4.33784C11.9462 2.77054 10.6756 1.5 9.10835 1.5C7.54105 1.5 6.27051 2.77054 6.27051 4.33784C6.27051 5.90513 7.54105 7.17568 9.10835 7.17568Z" stroke="white" stroke-width="2" stroke-linecap="round" stroke-linejoin="round"/>
<path d="M1 16.4982C1 12.9156 4.26716 10.0117 8.2973 10.0117M14.3784 12.4442V11.2279C14.3784 10.9054 14.2502 10.596 14.0222 10.3679C13.7941 10.1399 13.4847 10.0117 13.1622 10.0117C12.8396 10.0117 12.5303 10.1399 12.3022 10.3679C12.0741 10.596 11.9459 10.9054 11.9459 11.2279V12.4442M10.3243 12.4442H16V16.4982H10.3243V12.4442Z" stroke="white" stroke-width="2" stroke-linecap="round" stroke-linejoin="round"/>
</svg>
