<svg width="20" height="21" viewBox="0 0 20 21" fill="none" xmlns="http://www.w3.org/2000/svg">
<g clip-path="url(#clip0_2425_45448)">
<path d="M2.72988e-09 4.875C2.72988e-09 4.37772 0.197544 3.90081 0.549175 3.54917C0.900805 3.19754 1.37772 3 1.875 3H13.125C13.6223 3 14.0992 3.19754 14.4508 3.54917C14.8025 3.90081 15 4.37772 15 4.875V6.75H16.275C16.5559 6.75025 16.8332 6.81362 17.0863 6.93543C17.3395 7.05724 17.562 7.23438 17.7375 7.45375L19.5887 9.76625C19.8551 10.099 20.0002 10.5125 20 10.9387V13.625C20 14.1223 19.8025 14.5992 19.4508 14.9508C19.0992 15.3025 18.6223 15.5 18.125 15.5H17.5C17.5 16.163 17.2366 16.7989 16.7678 17.2678C16.2989 17.7366 15.663 18 15 18C14.337 18 13.7011 17.7366 13.2322 17.2678C12.7634 16.7989 12.5 16.163 12.5 15.5H6.25C6.25072 15.8332 6.18481 16.1632 6.05615 16.4706C5.92749 16.778 5.73868 17.0566 5.50081 17.29C5.26294 17.5233 4.98082 17.7068 4.67102 17.8296C4.36123 17.9523 4.03002 18.0119 3.69687 18.0048C3.36371 17.9977 3.03533 17.9241 2.73104 17.7883C2.42674 17.6525 2.15267 17.4572 1.92494 17.2139C1.6972 16.9707 1.5204 16.6843 1.40492 16.3717C1.28944 16.0592 1.23762 15.7266 1.2525 15.3937C0.88631 15.2649 0.569154 15.0255 0.344805 14.7087C0.120457 14.3919 -2.09399e-05 14.0132 2.72988e-09 13.625L2.72988e-09 4.875ZM1.6175 14.195C1.8435 13.825 2.16189 13.5202 2.54137 13.3105C2.92086 13.1008 3.34837 12.9934 3.78191 12.9989C4.21544 13.0045 4.64007 13.1228 5.01407 13.3421C5.38806 13.5614 5.69854 13.8743 5.915 14.25H12.835C13.0549 13.8703 13.3703 13.5549 13.75 13.335V4.875C13.75 4.70924 13.6842 4.55027 13.5669 4.43306C13.4497 4.31585 13.2908 4.25 13.125 4.25H1.875C1.70924 4.25 1.55027 4.31585 1.43306 4.43306C1.31585 4.55027 1.25 4.70924 1.25 4.875V13.625C1.2499 13.7453 1.28452 13.8631 1.34971 13.9642C1.4149 14.0653 1.50788 14.1454 1.6175 14.195ZM15 13C15.4388 13 15.8699 13.1155 16.25 13.335C16.63 13.5544 16.9456 13.87 17.165 14.25H18.125C18.2908 14.25 18.4497 14.1842 18.5669 14.0669C18.6842 13.9497 18.75 13.7908 18.75 13.625V10.9375C18.7497 10.7957 18.7013 10.6581 18.6125 10.5475L16.7625 8.235C16.704 8.1618 16.6299 8.10268 16.5455 8.062C16.4611 8.02132 16.3687 8.00013 16.275 8H15V13ZM3.75 14.25C3.41848 14.25 3.10054 14.3817 2.86612 14.6161C2.6317 14.8505 2.5 15.1685 2.5 15.5C2.5 15.8315 2.6317 16.1495 2.86612 16.3839C3.10054 16.6183 3.41848 16.75 3.75 16.75C4.08152 16.75 4.39946 16.6183 4.63388 16.3839C4.8683 16.1495 5 15.8315 5 15.5C5 15.1685 4.8683 14.8505 4.63388 14.6161C4.39946 14.3817 4.08152 14.25 3.75 14.25ZM15 14.25C14.6685 14.25 14.3505 14.3817 14.1161 14.6161C13.8817 14.8505 13.75 15.1685 13.75 15.5C13.75 15.8315 13.8817 16.1495 14.1161 16.3839C14.3505 16.6183 14.6685 16.75 15 16.75C15.3315 16.75 15.6495 16.6183 15.8839 16.3839C16.1183 16.1495 16.25 15.8315 16.25 15.5C16.25 15.1685 16.1183 14.8505 15.8839 14.6161C15.6495 14.3817 15.3315 14.25 15 14.25Z" fill="white"/>
</g>
<defs>
<clipPath id="clip0_2425_45448">
<rect width="20" height="20" fill="white" transform="translate(0 0.5)"/>
</clipPath>
</defs>
</svg>
