<svg width="18" height="18" viewBox="0 0 18 18" fill="none" xmlns="http://www.w3.org/2000/svg">
<path d="M9.87133 0.5V1.64347L14.228 3.13589L17.3927 2.05326L17.9442 3.74968L15.3024 4.65426L18 12.2703C17.0485 13.2876 15.7093 13.9211 14.228 13.9211C12.7459 13.9211 11.4075 13.2876 10.456 12.2703L13.1519 4.65426L9.87133 3.53047V15.7105H13.3567V17.5H4.64333V15.7105H8.12867V3.53047L4.84548 4.65426L7.54313 12.2703C6.59251 13.2876 5.25327 13.9211 3.772 13.9211C2.28986 13.9211 0.951496 13.2876 0 12.2703L2.6959 4.65426L0.0557653 3.75058L0.607319 2.05237L3.772 3.135L8.12867 1.64347V0.5H9.87133ZM14.228 6.85532L12.5219 11.6744C13.0334 11.9705 13.6172 12.1316 14.228 12.1316C14.8379 12.1316 15.4217 11.9705 15.9341 11.6753L14.228 6.85442V6.85532ZM3.772 6.85532L2.06593 11.6744C2.5774 11.9705 3.1612 12.1316 3.772 12.1316C4.38193 12.1316 4.96573 11.9705 5.47807 11.6753L3.772 6.85442V6.85532Z" fill="white"/>
</svg>
