<svg width="23" height="18" viewBox="0 0 23 18" fill="none" xmlns="http://www.w3.org/2000/svg">
<path fill-rule="evenodd" clip-rule="evenodd" d="M8.75 15.1775C8.75 15.3654 8.82243 15.5455 8.95136 15.6784C9.0803 15.8112 9.25516 15.8858 9.4375 15.8858L20.4375 15.8858C20.6198 15.8858 20.7947 15.8112 20.9236 15.6784C21.0526 15.5455 21.125 15.3654 21.125 15.1775L21.125 2.42749C21.125 2.23963 21.0526 2.05946 20.9236 1.92662C20.7947 1.79378 20.6198 1.71915 20.4375 1.71915L9.4375 1.71916C9.25516 1.71916 9.08029 1.79378 8.95136 1.92662C8.82243 2.05946 8.75 2.23963 8.75 2.42749L8.75 5.26082C8.75 5.44868 8.67757 5.62885 8.54864 5.76169C8.41971 5.89453 8.24484 5.96916 8.0625 5.96916C7.88016 5.96916 7.7053 5.89453 7.57636 5.76169C7.44743 5.62885 7.375 5.44868 7.375 5.26082L7.375 2.42749C7.375 1.8639 7.5923 1.3234 7.97909 0.924887C8.36589 0.526372 8.89049 0.302489 9.4375 0.302489L20.4375 0.302488C20.9845 0.302488 21.5091 0.526371 21.8959 0.924886C22.2827 1.3234 22.5 1.8639 22.5 2.42749L22.5 15.1775C22.5 15.7411 22.2827 16.2816 21.8959 16.6801C21.5091 17.0786 20.9845 17.3025 20.4375 17.3025L9.4375 17.3025C8.89049 17.3025 8.36589 17.0786 7.97909 16.6801C7.5923 16.2816 7.375 15.7411 7.375 15.1775L7.375 12.3442C7.375 12.1563 7.44743 11.9761 7.57636 11.8433C7.7053 11.7105 7.88016 11.6358 8.0625 11.6358C8.24484 11.6358 8.41971 11.7105 8.54864 11.8433C8.67757 11.9761 8.75 12.1563 8.75 12.3442L8.75 15.1775Z" fill="#C03221"/>
<path fill-rule="evenodd" clip-rule="evenodd" d="M0.70198 9.3021C0.637955 9.2363 0.587159 9.15814 0.5525 9.07208C0.517841 8.98602 0.500001 8.89377 0.500001 8.8006C0.500001 8.70743 0.517841 8.61517 0.5525 8.52912C0.587159 8.44306 0.637955 8.3649 0.70198 8.2991L4.82698 4.0491C4.95607 3.91609 5.13116 3.84137 5.31373 3.84137C5.4963 3.84137 5.67138 3.91609 5.80048 4.0491C5.92957 4.1821 6.0021 4.3625 6.0021 4.5506C6.0021 4.7387 5.92957 4.91909 5.80048 5.0521L2.84835 8.09227L14.9387 8.09226C15.1211 8.09226 15.2959 8.16689 15.4249 8.29973C15.5538 8.43257 15.6262 8.61273 15.6262 8.8006C15.6262 8.98846 15.5538 9.16863 15.4249 9.30146C15.2959 9.4343 15.1211 9.50893 14.9387 9.50893L2.84835 9.50893L5.80048 12.5491C5.8644 12.615 5.91511 12.6931 5.9497 12.7792C5.98429 12.8652 6.0021 12.9575 6.0021 13.0506C6.0021 13.1437 5.98429 13.236 5.9497 13.322C5.91511 13.4081 5.8644 13.4862 5.80048 13.5521C5.73656 13.618 5.66067 13.6702 5.57716 13.7058C5.49364 13.7415 5.40413 13.7598 5.31373 13.7598C5.22333 13.7598 5.13382 13.7415 5.0503 13.7058C4.96679 13.6702 4.8909 13.618 4.82698 13.5521L0.70198 9.3021V9.3021Z" fill="#C03221"/>
</svg>
