<svg width="22" height="22" viewBox="0 0 22 22" fill="none" xmlns="http://www.w3.org/2000/svg">
<g clip-path="url(#clip0_2304_142243)">
<path d="M16.687 0.448368C16.991 0.372335 17.3082 0.366553 17.6148 0.43146C17.9213 0.496367 18.209 0.630257 18.456 0.822967C18.7031 1.01568 18.903 1.26214 19.0406 1.54364C19.1781 1.82515 19.2498 2.1343 19.25 2.44762V4.12512H19.9375C20.4845 4.12512 21.0091 4.34242 21.3959 4.72921C21.7827 5.116 22 5.64061 22 6.18762V18.5626C22 19.1096 21.7827 19.6342 21.3959 20.021C21.0091 20.4078 20.4845 20.6251 19.9375 20.6251H2.0625C1.51549 20.6251 0.990886 20.4078 0.604092 20.021C0.217299 19.6342 1.34876e-07 19.1096 1.34876e-07 18.5626V6.18762C-0.000191758 5.65667 0.204383 5.1461 0.571144 4.76217C0.937905 4.37825 1.4386 4.15056 1.969 4.12649L16.687 0.448368ZM7.64775 4.12512H17.875V2.44762C17.8748 2.3433 17.8508 2.24041 17.8049 2.14673C17.759 2.05306 17.6924 1.97105 17.6101 1.90693C17.5279 1.8428 17.4321 1.79824 17.33 1.77662C17.228 1.75499 17.1223 1.75687 17.0211 1.78212L7.64775 4.12512ZM2.0625 5.50012C1.88016 5.50012 1.7053 5.57255 1.57636 5.70148C1.44743 5.83041 1.375 6.00528 1.375 6.18762V18.5626C1.375 18.745 1.44743 18.9198 1.57636 19.0488C1.7053 19.1777 1.88016 19.2501 2.0625 19.2501H19.9375C20.1198 19.2501 20.2947 19.1777 20.4236 19.0488C20.5526 18.9198 20.625 18.745 20.625 18.5626V6.18762C20.625 6.00528 20.5526 5.83041 20.4236 5.70148C20.2947 5.57255 20.1198 5.50012 19.9375 5.50012H2.0625Z" fill="#08B1BA"/>
</g>
<defs>
<clipPath id="clip0_2304_142243">
<rect width="22" height="22" fill="white"/>
</clipPath>
</defs>
</svg>
