<svg width="19" height="19" viewBox="0 0 19 19" fill="none" xmlns="http://www.w3.org/2000/svg">
<g clip-path="url(#clip0_2746_68955)">
<path d="M0 0H19V19H0V0Z" fill="#F16A1B"/>
<path d="M15.6594 3.34233C17.5143 5.1972 17.5143 8.20474 15.6594 10.0596L13.9795 11.738L10.0616 15.6575C8.2067 17.5124 5.19916 17.5124 3.34428 15.6575C1.48941 13.8026 1.48941 10.7951 3.34428 8.9402L8.94136 3.34233C10.797 1.48745 13.8046 1.48745 15.6594 3.34233V3.34233ZM11.7407 11.7387L7.26303 7.26108L4.4637 10.0596C3.22711 11.2962 3.22711 13.3015 4.4637 14.5381C5.70028 15.7747 7.70557 15.7747 8.94216 14.5381L11.7407 11.7387V11.7387Z" fill="white"/>
</g>
<defs>
<clipPath id="clip0_2746_68955">
<rect width="19" height="19" fill="white"/>
</clipPath>
</defs>
</svg>
